<?xml version="1.0" encoding="UTF-8"?>
<!DOCTYPE svg PUBLIC "-//W3C//DTD SVG 1.1//EN" "http://www.w3.org/Graphics/SVG/1.1/DTD/svg11.dtd">
<svg xmlns="http://www.w3.org/2000/svg" version="1.1" width="922px" height="960px" style="shape-rendering:geometricPrecision; text-rendering:geometricPrecision; image-rendering:optimizeQuality; fill-rule:evenodd; clip-rule:evenodd" xmlns:xlink="http://www.w3.org/1999/xlink">
<g><path style="opacity:0.175" fill="#515151" d="M 506.5,18.5 C 505.848,19.7251 504.681,20.3917 503,20.5C 498.863,19.7625 494.697,19.4292 490.5,19.5C 461.425,17.6129 432.425,18.2796 403.5,21.5C 401.379,21.6747 399.379,21.3414 397.5,20.5C 403.865,18.3824 410.532,17.2158 417.5,17C 447.206,16.0029 476.873,16.5029 506.5,18.5 Z"/></g>
<g><path style="opacity:1" fill="#1c54b2" d="M 490.5,19.5 C 497.301,20.9479 504.301,21.9479 511.5,22.5C 515.615,23.9434 519.948,24.9434 524.5,25.5C 533.527,28.8488 541.86,33.5155 549.5,39.5C 550.419,42.0892 552.086,44.0892 554.5,45.5C 559.752,53.6676 564.752,62.0009 569.5,70.5C 570.659,74.1513 572.326,77.4846 574.5,80.5C 575.93,84.3544 577.597,88.0211 579.5,91.5C 579.707,94.2406 580.707,96.5739 582.5,98.5C 584.872,103.902 587.205,109.235 589.5,114.5C 589.98,117.443 590.98,120.11 592.5,122.5C 593.992,126.987 595.658,131.32 597.5,135.5C 598.459,139.383 599.792,143.05 601.5,146.5C 614.653,178.131 628.319,209.464 642.5,240.5C 642.707,243.241 643.707,245.574 645.5,247.5C 649.92,258.757 654.92,269.757 660.5,280.5C 660.794,283.754 662.127,286.421 664.5,288.5C 671.981,308.119 679.981,327.452 688.5,346.5C 688.707,349.241 689.707,351.574 691.5,353.5C 698.714,372.252 706.714,390.586 715.5,408.5C 715.733,411.542 716.733,414.208 718.5,416.5C 725.371,435.896 733.038,454.896 741.5,473.5C 741.707,476.241 742.707,478.574 744.5,480.5C 746.503,485.171 748.503,489.838 750.5,494.5C 750.872,498.297 752.206,501.63 754.5,504.5C 758.654,516.129 763.321,527.463 768.5,538.5C 768.707,541.241 769.707,543.574 771.5,545.5C 795.891,605.618 821.391,665.285 848,724.5C 856.334,746.483 865.167,768.149 874.5,789.5C 874.394,792.079 875.061,794.412 876.5,796.5C 877.646,801.438 879.313,806.105 881.5,810.5C 882.768,815.97 884.435,821.304 886.5,826.5C 886.928,829.785 887.928,832.785 889.5,835.5C 890.766,840.965 892.433,846.299 894.5,851.5C 895.393,857.172 897.059,862.506 899.5,867.5C 901.327,873.81 902.994,880.144 904.5,886.5C 904.966,892.491 905.299,898.491 905.5,904.5C 904.128,905.512 902.795,906.512 901.5,907.5C 896.518,908.053 891.518,908.387 886.5,908.5C 885.833,908.5 885.5,908.833 885.5,909.5C 824.856,911.98 764.189,913.813 703.5,915C 607.167,915.5 510.834,915.667 414.5,915.5C 408.131,915.653 401.797,915.32 395.5,914.5C 386.167,914.5 376.833,914.5 367.5,914.5C 347.144,914.773 326.811,914.44 306.5,913.5C 267.5,913.5 228.5,913.5 189.5,913.5C 167.834,913.146 146.167,912.813 124.5,912.5C 123.833,912.167 123.167,911.833 122.5,911.5C 104.503,911.033 86.503,910.7 68.5,910.5C 68.1583,909.662 67.4916,909.328 66.5,909.5C 51.7858,909.119 37.1192,908.119 22.5,906.5C 16.3466,905.59 14.0133,901.924 15.5,895.5C 16.531,893.039 17.1977,890.373 17.5,887.5C 19.3694,881.892 21.0361,876.225 22.5,870.5C 24.4053,866.784 25.7387,862.784 26.5,858.5C 41.2141,826.413 55.8808,794.413 70.5,762.5C 75.6628,754.186 81.3295,746.186 87.5,738.5C 92.7668,734.58 98.7668,732.747 105.5,733C 127.497,732.5 149.497,732.333 171.5,732.5C 193.984,733.42 216.651,733.754 239.5,733.5C 241.612,734.275 243.612,734.275 245.5,733.5C 286.736,734.83 328.069,734.83 369.5,733.5C 400.671,733.831 431.671,733.498 462.5,732.5C 494.841,732.681 527.175,732.348 559.5,731.5C 572.859,731.737 586.192,731.404 599.5,730.5C 611.835,730.202 624.168,729.868 636.5,729.5C 641.43,729.554 646.764,729.221 652.5,728.5C 653.167,728.5 653.5,728.167 653.5,727.5C 654.497,727.53 655.164,727.03 655.5,726C 654.433,722.284 653.099,718.784 651.5,715.5C 651.443,714.391 651.11,713.391 650.5,712.5C 650.448,709.654 649.448,707.32 647.5,705.5C 645.07,699.643 642.403,693.977 639.5,688.5C 639.598,686.447 638.931,684.78 637.5,683.5C 634.344,675.192 630.677,667.192 626.5,659.5C 626.25,657.326 625.25,655.659 623.5,654.5C 622.925,651.088 621.592,648.088 619.5,645.5C 618.341,641.849 616.674,638.515 614.5,635.5C 614.443,634.391 614.11,633.391 613.5,632.5C 613.598,630.447 612.931,628.78 611.5,627.5C 610.284,622.738 608.284,618.405 605.5,614.5C 605.5,614.167 605.5,613.833 605.5,613.5C 603.344,607.196 600.678,601.196 597.5,595.5C 596.401,590.856 594.734,586.522 592.5,582.5C 591.352,578.213 589.685,574.213 587.5,570.5C 587.443,569.391 587.11,568.391 586.5,567.5C 585.296,562.105 583.296,557.105 580.5,552.5C 578.871,547.265 576.871,542.265 574.5,537.5C 572.403,531.651 570.069,525.985 567.5,520.5C 566.601,516.376 564.934,512.709 562.5,509.5C 561.679,505.873 560.346,502.54 558.5,499.5C 557.352,495.213 555.685,491.213 553.5,487.5C 551.123,479.018 547.79,471.018 543.5,463.5C 543.107,461.716 542.441,460.05 541.5,458.5C 540.352,454.213 538.685,450.213 536.5,446.5C 535.07,442.646 533.403,438.979 531.5,435.5C 531.293,432.759 530.293,430.426 528.5,428.5C 526.736,423.978 524.736,419.645 522.5,415.5C 522.065,412.843 521.065,410.509 519.5,408.5C 512.344,390.863 504.678,373.53 496.5,356.5C 496.598,354.447 495.931,352.78 494.5,351.5C 488.828,335.115 481.828,319.448 473.5,304.5C 473.573,302.973 472.906,301.973 471.5,301.5C 468.993,294.988 464.659,289.988 458.5,286.5C 452.539,291.741 448.039,298.074 445,305.5C 437.614,333.051 430.614,360.385 424,387.5C 421.185,394.119 418.685,400.786 416.5,407.5C 410.219,418.984 404.886,430.984 400.5,443.5C 398.707,445.426 397.707,447.759 397.5,450.5C 383.019,480.259 369.685,510.592 357.5,541.5C 355.069,545.111 353.403,549.111 352.5,553.5C 349.732,558.265 347.232,563.265 345,568.5C 341.202,577.755 337.702,587.089 334.5,596.5C 332.616,599.603 331.282,602.937 330.5,606.5C 328.69,609.145 327.69,612.145 327.5,615.5C 324.862,622.119 322.195,628.786 319.5,635.5C 317.796,638.256 316.463,641.256 315.5,644.5C 311.918,649.994 308.585,655.661 305.5,661.5C 303.413,662.585 302.08,664.251 301.5,666.5C 299.856,666.81 298.856,667.81 298.5,669.5C 289.431,674.018 279.764,676.518 269.5,677C 242.848,678.531 216.181,678.698 189.5,677.5C 184.453,677.663 179.453,677.329 174.5,676.5C 158.815,676.586 143.149,676.086 127.5,675C 124.066,674.442 120.733,673.609 117.5,672.5C 115.985,670.497 115.319,668.163 115.5,665.5C 116.973,659.938 118.306,654.271 119.5,648.5C 122.258,641.817 124.258,634.817 125.5,627.5C 125.5,627.167 125.5,626.833 125.5,626.5C 127.072,623.785 128.072,620.785 128.5,617.5C 130.585,615.316 131.585,612.649 131.5,609.5C 133.871,604.735 135.871,599.735 137.5,594.5C 140.018,590.123 142.018,585.456 143.5,580.5C 144.674,579.486 145.34,578.153 145.5,576.5C 146.931,575.22 147.598,573.553 147.5,571.5C 149.974,569.102 151.308,566.102 151.5,562.5C 176.962,500.913 202.962,439.579 229.5,378.5C 230.931,377.22 231.598,375.553 231.5,373.5C 243.685,345.786 255.352,317.786 266.5,289.5C 268.293,287.574 269.293,285.241 269.5,282.5C 271.623,279.133 272.956,275.466 273.5,271.5C 275.607,268.943 276.941,265.943 277.5,262.5C 278.674,261.486 279.34,260.153 279.5,258.5C 284.051,248.73 288.051,238.73 291.5,228.5C 293.685,224.787 295.352,220.787 296.5,216.5C 299.345,211.469 301.678,206.136 303.5,200.5C 305.065,198.491 306.065,196.157 306.5,193.5C 307.404,192.791 307.737,191.791 307.5,190.5C 309.957,187.249 311.624,183.582 312.5,179.5C 314.293,177.574 315.293,175.241 315.5,172.5C 316.11,171.609 316.443,170.609 316.5,169.5C 318.957,166.249 320.624,162.582 321.5,158.5C 323.213,157.365 323.88,155.698 323.5,153.5C 327.35,146.463 330.683,139.129 333.5,131.5C 334.486,129.574 335.486,127.574 336.5,125.5C 338.293,123.574 339.293,121.241 339.5,118.5C 341.213,117.365 341.88,115.698 341.5,113.5C 343.341,111.151 344.674,108.485 345.5,105.5C 347.625,102.912 348.958,99.9122 349.5,96.5C 352.243,91.7368 354.577,86.7368 356.5,81.5C 358.539,80.089 359.539,78.089 359.5,75.5C 361.736,71.3554 363.736,67.022 365.5,62.5C 367.008,60.8185 368.008,58.8185 368.5,56.5C 372.901,48.7026 377.568,41.0359 382.5,33.5C 384.587,32.4154 385.92,30.7488 386.5,28.5C 388.368,27.7368 390.035,26.7368 391.5,25.5C 395.776,24.6802 399.776,23.3468 403.5,21.5C 432.425,18.2796 461.425,17.6129 490.5,19.5 Z"/></g>
<g><path style="opacity:0.384" fill="#989898" d="M 506.5,18.5 C 506.833,18.5 507.167,18.5 507.5,18.5C 507.5,19.5 507.5,20.5 507.5,21.5C 509.099,21.2322 510.432,21.5655 511.5,22.5C 504.301,21.9479 497.301,20.9479 490.5,19.5C 494.697,19.4292 498.863,19.7625 503,20.5C 504.681,20.3917 505.848,19.7251 506.5,18.5 Z"/></g>
<g><path style="opacity:0.071" fill="#414141" d="M 507.5,18.5 C 511.336,19.1866 515.002,20.1866 518.5,21.5C 516.283,22.3686 513.95,22.702 511.5,22.5C 510.432,21.5655 509.099,21.2322 507.5,21.5C 507.5,20.5 507.5,19.5 507.5,18.5 Z"/></g>
<g><path style="opacity:0.18" fill="#7f7f7f" d="M 396.5,20.5 C 396.833,20.5 397.167,20.5 397.5,20.5C 399.379,21.3414 401.379,21.6747 403.5,21.5C 399.776,23.3468 395.776,24.6802 391.5,25.5C 393.538,24.2459 395.204,22.5792 396.5,20.5 Z"/></g>
<g><path style="opacity:0.384" fill="#a1a1a1" d="M 518.5,21.5 C 519.5,21.5 520.5,21.5 521.5,21.5C 520.737,22.2679 519.737,22.7679 518.5,23C 520.723,23.5662 522.723,24.3995 524.5,25.5C 519.948,24.9434 515.615,23.9434 511.5,22.5C 513.95,22.702 516.283,22.3686 518.5,21.5 Z"/></g>
<g><path style="opacity:0.78" fill="#afafaf" d="M 386.5,28.5 C 385.92,30.7488 384.587,32.4154 382.5,33.5C 383.08,31.2512 384.413,29.5846 386.5,28.5 Z"/></g>
<g><path style="opacity:0.173" fill="#575757" d="M 521.5,21.5 C 532.158,24.2561 541.491,29.2561 549.5,36.5C 548.761,36.369 548.094,36.5357 547.5,37C 548.381,37.7083 549.047,38.5416 549.5,39.5C 541.86,33.5155 533.527,28.8488 524.5,25.5C 522.723,24.3995 520.723,23.5662 518.5,23C 519.737,22.7679 520.737,22.2679 521.5,21.5 Z"/></g>
<g><path style="opacity:0.137" fill="#343434" d="M 396.5,20.5 C 395.204,22.5792 393.538,24.2459 391.5,25.5C 390.035,26.7368 388.368,27.7368 386.5,28.5C 384.413,29.5846 383.08,31.2512 382.5,33.5C 377.568,41.0359 372.901,48.7026 368.5,56.5C 366.461,57.911 365.461,59.911 365.5,62.5C 363.736,67.022 361.736,71.3554 359.5,75.5C 357.992,77.1815 356.992,79.1815 356.5,81.5C 354.577,86.7368 352.243,91.7368 349.5,96.5C 348.5,97.8333 347.5,97.8333 346.5,96.5C 354.853,77.46 364.02,58.7933 374,40.5C 377.327,34.6931 381.494,29.5264 386.5,25C 389.469,22.682 392.802,21.182 396.5,20.5 Z"/></g>
<g><path style="opacity:0.522" fill="#a8a8a8" d="M 549.5,39.5 C 551.914,40.9108 553.581,42.9108 554.5,45.5C 552.086,44.0892 550.419,42.0892 549.5,39.5 Z"/></g>
<g><path style="opacity:0.463" fill="#9c9c9c" d="M 368.5,56.5 C 368.008,58.8185 367.008,60.8185 365.5,62.5C 365.461,59.911 366.461,57.911 368.5,56.5 Z"/></g>
<g><path style="opacity:0.169" fill="#848484" d="M 569.5,70.5 C 572.736,72.971 574.402,76.3043 574.5,80.5C 572.326,77.4846 570.659,74.1513 569.5,70.5 Z"/></g>
<g><path style="opacity:0.627" fill="#aeaeae" d="M 359.5,75.5 C 359.539,78.089 358.539,80.089 356.5,81.5C 356.992,79.1815 357.992,77.1815 359.5,75.5 Z"/></g>
<g><path style="opacity:0.518" fill="#aaaaaa" d="M 579.5,91.5 C 581.293,93.4261 582.293,95.7594 582.5,98.5C 580.707,96.5739 579.707,94.2406 579.5,91.5 Z"/></g>
<g><path style="opacity:0.212" fill="#717171" d="M 346.5,96.5 C 347.5,97.8333 348.5,97.8333 349.5,96.5C 348.958,99.9122 347.625,102.912 345.5,105.5C 345.104,102.956 345.771,100.789 347.5,99C 346.944,98.6174 346.611,98.1174 346.5,97.5C 346.5,97.1667 346.5,96.8333 346.5,96.5 Z"/></g>
<g><path style="opacity:0.941" fill="#949494" d="M 341.5,113.5 C 341.88,115.698 341.213,117.365 339.5,118.5C 339.796,116.597 340.463,114.93 341.5,113.5 Z"/></g>
<g><path style="opacity:0.404" fill="#969696" d="M 589.5,114.5 C 591.585,116.684 592.585,119.351 592.5,122.5C 590.98,120.11 589.98,117.443 589.5,114.5 Z"/></g>
<g><path style="opacity:0.082" fill="#232323" d="M 346.5,97.5 C 346.611,98.1174 346.944,98.6174 347.5,99C 345.771,100.789 345.104,102.956 345.5,105.5C 344.674,108.485 343.341,111.151 341.5,113.5C 340.463,114.93 339.796,116.597 339.5,118.5C 337.707,120.426 336.707,122.759 336.5,125.5C 335.486,127.574 334.486,129.574 333.5,131.5C 331.441,134.611 329.608,137.944 328,141.5C 327.617,140.944 327.117,140.611 326.5,140.5C 332.928,125.982 339.594,111.649 346.5,97.5 Z"/></g>
<g><path style="opacity:0.475" fill="#a1a1a1" d="M 339.5,118.5 C 339.293,121.241 338.293,123.574 336.5,125.5C 336.707,122.759 337.707,120.426 339.5,118.5 Z"/></g>
<g><path style="opacity:0.133" fill="#434343" d="M 549.5,36.5 C 552.464,38.9619 555.297,41.6286 558,44.5C 568.894,61.6201 578.228,79.6201 586,98.5C 590.939,110.489 595.772,122.489 600.5,134.5C 599.778,134.918 599.278,135.584 599,136.5C 598.617,135.944 598.117,135.611 597.5,135.5C 595.658,131.32 593.992,126.987 592.5,122.5C 592.585,119.351 591.585,116.684 589.5,114.5C 587.205,109.235 584.872,103.902 582.5,98.5C 582.293,95.7594 581.293,93.4261 579.5,91.5C 577.597,88.0211 575.93,84.3544 574.5,80.5C 574.402,76.3043 572.736,72.971 569.5,70.5C 564.752,62.0009 559.752,53.6676 554.5,45.5C 553.581,42.9108 551.914,40.9108 549.5,39.5C 549.047,38.5416 548.381,37.7083 547.5,37C 548.094,36.5357 548.761,36.369 549.5,36.5 Z"/></g>
<g><path style="opacity:0.404" fill="#8a8a8a" d="M 600.5,134.5 C 600.5,135.167 600.5,135.833 600.5,136.5C 600.196,137.15 599.863,137.817 599.5,138.5C 601.055,140.943 601.722,143.61 601.5,146.5C 599.792,143.05 598.459,139.383 597.5,135.5C 598.117,135.611 598.617,135.944 599,136.5C 599.278,135.584 599.778,134.918 600.5,134.5 Z"/></g>
<g><path style="opacity:0.082" fill="#535353" d="M 333.5,131.5 C 330.683,139.129 327.35,146.463 323.5,153.5C 323.737,152.209 323.404,151.209 322.5,150.5C 323.639,147.082 324.972,143.749 326.5,140.5C 327.117,140.611 327.617,140.944 328,141.5C 329.608,137.944 331.441,134.611 333.5,131.5 Z"/></g>
<g><path style="opacity:0.067" fill="#1c1c1c" d="M 322.5,150.5 C 323.404,151.209 323.737,152.209 323.5,153.5C 322.463,154.93 321.796,156.597 321.5,158.5C 320.51,160.79 318.843,162.456 316.5,163.5C 318.264,158.978 320.264,154.645 322.5,150.5 Z"/></g>
<g><path style="opacity:0.937" fill="#9c9c9c" d="M 323.5,153.5 C 323.88,155.698 323.213,157.365 321.5,158.5C 321.796,156.597 322.463,154.93 323.5,153.5 Z"/></g>
<g><path style="opacity:0.163" fill="#616161" d="M 321.5,158.5 C 320.624,162.582 318.957,166.249 316.5,169.5C 316.737,168.209 316.404,167.209 315.5,166.5C 315.557,165.391 315.89,164.391 316.5,163.5C 318.843,162.456 320.51,160.79 321.5,158.5 Z"/></g>
<g><path style="opacity:0.202" fill="#242424" d="M 315.5,166.5 C 316.404,167.209 316.737,168.209 316.5,169.5C 316.443,170.609 316.11,171.609 315.5,172.5C 313.707,174.426 312.707,176.759 312.5,179.5C 311.5,180.833 310.5,180.833 309.5,179.5C 311.261,174.982 313.261,170.649 315.5,166.5 Z"/></g>
<g><path style="opacity:0.863" fill="#a5a5a5" d="M 315.5,172.5 C 315.293,175.241 314.293,177.574 312.5,179.5C 312.707,176.759 313.707,174.426 315.5,172.5 Z"/></g>
<g><path style="opacity:0.192" fill="#5f5f5f" d="M 309.5,179.5 C 310.5,180.833 311.5,180.833 312.5,179.5C 311.624,183.582 309.957,187.249 307.5,190.5C 307.674,188.139 308.007,185.806 308.5,183.5C 308.433,182.041 308.766,180.708 309.5,179.5 Z"/></g>
<g><path style="opacity:0.127" fill="#1c1c1c" d="M 308.5,183.5 C 308.007,185.806 307.674,188.139 307.5,190.5C 307.737,191.791 307.404,192.791 306.5,193.5C 305.5,194.833 304.5,194.833 303.5,193.5C 304.797,189.917 306.463,186.584 308.5,183.5 Z"/></g>
<g><path style="opacity:0.155" fill="#181818" d="M 303.5,194.5 C 304.275,196.388 304.275,198.388 303.5,200.5C 302.5,201.833 301.5,201.833 300.5,200.5C 301.13,198.25 302.13,196.25 303.5,194.5 Z"/></g>
<g><path style="opacity:0.494" fill="#969696" d="M 303.5,193.5 C 304.5,194.833 305.5,194.833 306.5,193.5C 306.065,196.157 305.065,198.491 303.5,200.5C 304.275,198.388 304.275,196.388 303.5,194.5C 303.5,194.167 303.5,193.833 303.5,193.5 Z"/></g>
<g><path style="opacity:0.102" fill="#323232" d="M 300.5,200.5 C 301.5,201.833 302.5,201.833 303.5,200.5C 301.678,206.136 299.345,211.469 296.5,216.5C 295.108,218.273 293.941,220.273 293,222.5C 292.329,223.252 291.496,223.586 290.5,223.5C 293.833,215.833 297.167,208.167 300.5,200.5 Z"/></g>
<g><path style="opacity:0.863" fill="#929292" d="M 296.5,216.5 C 295.352,220.787 293.685,224.787 291.5,228.5C 291.768,226.901 291.434,225.568 290.5,224.5C 290.5,224.167 290.5,223.833 290.5,223.5C 291.496,223.586 292.329,223.252 293,222.5C 293.941,220.273 295.108,218.273 296.5,216.5 Z"/></g>
<g><path style="opacity:0.116" fill="#373737" d="M 290.5,224.5 C 291.434,225.568 291.768,226.901 291.5,228.5C 288.051,238.73 284.051,248.73 279.5,258.5C 277.896,259.287 277.229,260.62 277.5,262.5C 276.442,263.6 275.608,264.934 275,266.5C 274.329,267.252 273.496,267.586 272.5,267.5C 278.128,252.933 284.128,238.599 290.5,224.5 Z"/></g>
<g><path style="opacity:0.518" fill="#b2b2b2" d="M 642.5,240.5 C 644.293,242.426 645.293,244.759 645.5,247.5C 643.707,245.574 642.707,243.241 642.5,240.5 Z"/></g>
<g><path style="opacity:0.51" fill="#b3b3b3" d="M 279.5,258.5 C 279.34,260.153 278.674,261.486 277.5,262.5C 277.229,260.62 277.896,259.287 279.5,258.5 Z"/></g>
<g><path style="opacity:0.173" fill="#7f7f7f" d="M 277.5,262.5 C 276.941,265.943 275.607,268.943 273.5,271.5C 273.737,270.209 273.404,269.209 272.5,268.5C 272.5,268.167 272.5,267.833 272.5,267.5C 273.496,267.586 274.329,267.252 275,266.5C 275.608,264.934 276.442,263.6 277.5,262.5 Z"/></g>
<g><path style="opacity:0.075" fill="#313131" d="M 272.5,268.5 C 273.404,269.209 273.737,270.209 273.5,271.5C 272.956,275.466 271.623,279.133 269.5,282.5C 267.707,284.426 266.707,286.759 266.5,289.5C 265.778,289.918 265.278,290.584 265,291.5C 264.617,290.944 264.117,290.611 263.5,290.5C 265.988,282.871 268.988,275.538 272.5,268.5 Z"/></g>
<g><path style="opacity:0.925" fill="#9d9d9d" d="M 269.5,282.5 C 269.293,285.241 268.293,287.574 266.5,289.5C 266.707,286.759 267.707,284.426 269.5,282.5 Z"/></g>
<g><path style="opacity:0.898" fill="#a5a5a5" d="M 660.5,280.5 C 662.341,282.849 663.674,285.515 664.5,288.5C 662.127,286.421 660.794,283.754 660.5,280.5 Z"/></g>
<g><path style="opacity:0.16" fill="#4d4d4d" d="M 600.5,136.5 C 624.954,193.988 650.121,251.321 676,308.5C 691.027,345.761 706.527,382.761 722.5,419.5C 720.57,419.229 719.236,418.229 718.5,416.5C 718.267,413.458 717.267,410.792 715.5,408.5C 706.714,390.586 698.714,372.252 691.5,353.5C 691.293,350.759 690.293,348.426 688.5,346.5C 679.981,327.452 671.981,308.119 664.5,288.5C 663.674,285.515 662.341,282.849 660.5,280.5C 654.92,269.757 649.92,258.757 645.5,247.5C 645.293,244.759 644.293,242.426 642.5,240.5C 628.319,209.464 614.653,178.131 601.5,146.5C 601.722,143.61 601.055,140.943 599.5,138.5C 599.863,137.817 600.196,137.15 600.5,136.5 Z"/></g>
<g><path style="opacity:0.49" fill="#9e9e9e" d="M 471.5,301.5 C 472.906,301.973 473.573,302.973 473.5,304.5C 472.094,304.027 471.427,303.027 471.5,301.5 Z"/></g>
<g><path style="opacity:0.196" fill="#393939" d="M 471.5,301.5 C 471.427,303.027 472.094,304.027 473.5,304.5C 481.828,319.448 488.828,335.115 494.5,351.5C 494.402,353.553 495.069,355.22 496.5,356.5C 504.678,373.53 512.344,390.863 519.5,408.5C 519.166,411.491 520.166,413.824 522.5,415.5C 524.736,419.645 526.736,423.978 528.5,428.5C 528.707,431.241 529.707,433.574 531.5,435.5C 533.403,438.979 535.07,442.646 536.5,446.5C 537.159,449.455 537.492,452.455 537.5,455.5C 528.533,434.891 519.533,414.224 510.5,393.5C 510.969,390.607 509.969,388.607 507.5,387.5C 497.464,365.424 487.964,343.091 479,320.5C 475.995,313.818 472.495,307.484 468.5,301.5C 469.5,300.167 470.5,300.167 471.5,301.5 Z"/></g>
<g><path style="opacity:0.176" fill="#5d5d5d" d="M 471.5,301.5 C 470.5,300.167 469.5,300.167 468.5,301.5C 465.858,297.36 462.692,293.693 459,290.5C 454.22,294.033 450.886,298.7 449,304.5C 442.043,328.996 435.709,353.662 430,378.5C 427.458,386.626 424.625,394.626 421.5,402.5C 420.883,402.389 420.383,402.056 420,401.5C 418.918,403.618 417.751,405.618 416.5,407.5C 418.685,400.786 421.185,394.119 424,387.5C 430.614,360.385 437.614,333.051 445,305.5C 448.039,298.074 452.539,291.741 458.5,286.5C 464.659,289.988 468.993,294.988 471.5,301.5 Z"/></g>
<g><path style="opacity:0.424" fill="#b0b0b0" d="M 688.5,346.5 C 690.293,348.426 691.293,350.759 691.5,353.5C 689.707,351.574 688.707,349.241 688.5,346.5 Z"/></g>
<g><path style="opacity:0.835" fill="#a6a6a6" d="M 494.5,351.5 C 495.931,352.78 496.598,354.447 496.5,356.5C 495.069,355.22 494.402,353.553 494.5,351.5 Z"/></g>
<g><path style="opacity:0.478" fill="#b2b2b2" d="M 231.5,373.5 C 231.598,375.553 230.931,377.22 229.5,378.5C 229.402,376.447 230.069,374.78 231.5,373.5 Z"/></g>
<g><path style="opacity:0.102" fill="#171717" d="M 507.5,387.5 C 509.969,388.607 510.969,390.607 510.5,393.5C 509.514,391.574 508.514,389.574 507.5,387.5 Z"/></g>
<g><path style="opacity:0.271" fill="#7b7b7b" d="M 519.5,408.5 C 521.065,410.509 522.065,412.843 522.5,415.5C 520.166,413.824 519.166,411.491 519.5,408.5 Z"/></g>
<g><path style="opacity:0.439" fill="#ababab" d="M 715.5,408.5 C 717.267,410.792 718.267,413.458 718.5,416.5C 716.733,414.208 715.733,411.542 715.5,408.5 Z"/></g>
<g><path style="opacity:0.416" fill="#afafaf" d="M 528.5,428.5 C 530.293,430.426 531.293,432.759 531.5,435.5C 529.707,433.574 528.707,431.241 528.5,428.5 Z"/></g>
<g><path style="opacity:0.145" fill="#4a4a4a" d="M 266.5,289.5 C 255.352,317.786 243.685,345.786 231.5,373.5C 230.069,374.78 229.402,376.447 229.5,378.5C 202.962,439.579 176.962,500.913 151.5,562.5C 150.108,564.273 148.941,566.273 148,568.5C 147.617,567.944 147.117,567.611 146.5,567.5C 185.305,475.085 224.305,382.752 263.5,290.5C 264.117,290.611 264.617,290.944 265,291.5C 265.278,290.584 265.778,289.918 266.5,289.5 Z"/></g>
<g><path style="opacity:0.549" fill="#bbbbbb" d="M 400.5,443.5 C 400.293,446.241 399.293,448.574 397.5,450.5C 397.707,447.759 398.707,445.426 400.5,443.5 Z"/></g>
<g><path style="opacity:0.216" fill="#7c7c7c" d="M 536.5,446.5 C 538.685,450.213 540.352,454.213 541.5,458.5C 540.442,457.4 539.608,456.066 539,454.5C 538.617,455.056 538.117,455.389 537.5,455.5C 537.492,452.455 537.159,449.455 536.5,446.5 Z"/></g>
<g><path style="opacity:0.024" fill="#181818" d="M 541.5,458.5 C 542.441,460.05 543.107,461.716 543.5,463.5C 544.796,467.76 545.796,472.094 546.5,476.5C 543.264,469.684 540.264,462.684 537.5,455.5C 538.117,455.389 538.617,455.056 539,454.5C 539.608,456.066 540.442,457.4 541.5,458.5 Z"/></g>
<g><path style="opacity:0.565" fill="#bbbbbb" d="M 741.5,473.5 C 743.293,475.426 744.293,477.759 744.5,480.5C 742.707,478.574 741.707,476.241 741.5,473.5 Z"/></g>
<g><path style="opacity:0.286" fill="#525252" d="M 421.5,402.5 C 399.648,450.326 378.314,498.326 357.5,546.5C 357.5,544.833 357.5,543.167 357.5,541.5C 369.685,510.592 383.019,480.259 397.5,450.5C 399.293,448.574 400.293,446.241 400.5,443.5C 404.886,430.984 410.219,418.984 416.5,407.5C 417.751,405.618 418.918,403.618 420,401.5C 420.383,402.056 420.883,402.389 421.5,402.5 Z"/></g>
<g><path style="opacity:0.318" fill="#848484" d="M 553.5,487.5 C 555.685,491.213 557.352,495.213 558.5,499.5C 555.683,496.069 554.017,492.069 553.5,487.5 Z"/></g>
<g><path style="opacity:0.549" fill="#afafaf" d="M 750.5,494.5 C 752.403,497.53 753.737,500.863 754.5,504.5C 752.206,501.63 750.872,498.297 750.5,494.5 Z"/></g>
<g><path style="opacity:0.149" fill="#313131" d="M 543.5,463.5 C 547.79,471.018 551.123,479.018 553.5,487.5C 554.017,492.069 555.683,496.069 558.5,499.5C 560.346,502.54 561.679,505.873 562.5,509.5C 563.265,512.096 563.599,514.763 563.5,517.5C 557.267,504.152 551.6,490.486 546.5,476.5C 545.796,472.094 544.796,467.76 543.5,463.5 Z"/></g>
<g><path style="opacity:0.133" fill="#545454" d="M 718.5,416.5 C 719.236,418.229 720.57,419.229 722.5,419.5C 763.833,522.349 807,624.349 852,725.5C 859.8,744.405 867.3,763.405 874.5,782.5C 873.637,781.537 872.97,781.537 872.5,782.5C 873.577,784.729 874.244,787.063 874.5,789.5C 865.167,768.149 856.334,746.483 848,724.5C 821.391,665.285 795.891,605.618 771.5,545.5C 771.293,542.759 770.293,540.426 768.5,538.5C 763.321,527.463 758.654,516.129 754.5,504.5C 753.737,500.863 752.403,497.53 750.5,494.5C 748.503,489.838 746.503,485.171 744.5,480.5C 744.293,477.759 743.293,475.426 741.5,473.5C 733.038,454.896 725.371,435.896 718.5,416.5 Z"/></g>
<g><path style="opacity:0.282" fill="#6e6e6e" d="M 562.5,509.5 C 564.934,512.709 566.601,516.376 567.5,520.5C 566.363,519.211 565.03,518.211 563.5,517.5C 563.599,514.763 563.265,512.096 562.5,509.5 Z"/></g>
<g><path style="opacity:0.094" fill="#111111" d="M 563.5,517.5 C 565.03,518.211 566.363,519.211 567.5,520.5C 567.963,523.482 568.296,526.482 568.5,529.5C 566.462,525.739 564.796,521.739 563.5,517.5 Z"/></g>
<g><path style="opacity:0.188" fill="#646464" d="M 567.5,520.5 C 570.069,525.985 572.403,531.651 574.5,537.5C 572.476,534.755 570.476,532.089 568.5,529.5C 568.296,526.482 567.963,523.482 567.5,520.5 Z"/></g>
<g><path style="opacity:0.149" fill="#111111" d="M 568.5,529.5 C 570.476,532.089 572.476,534.755 574.5,537.5C 575.092,540.127 575.425,542.794 575.5,545.5C 572.655,540.469 570.322,535.136 568.5,529.5 Z"/></g>
<g><path style="opacity:0.522" fill="#9a9a9a" d="M 768.5,538.5 C 770.293,540.426 771.293,542.759 771.5,545.5C 769.707,543.574 768.707,541.241 768.5,538.5 Z"/></g>
<g><path style="opacity:0.157" fill="#7e7e7e" d="M 357.5,541.5 C 357.5,543.167 357.5,544.833 357.5,546.5C 357.5,547.167 357.5,547.833 357.5,548.5C 356.883,548.389 356.383,548.056 356,547.5C 355.059,549.727 353.892,551.727 352.5,553.5C 353.403,549.111 355.069,545.111 357.5,541.5 Z"/></g>
<g><path style="opacity:0.31" fill="#393939" d="M 574.5,537.5 C 576.871,542.265 578.871,547.265 580.5,552.5C 580.5,553.5 580.5,554.5 580.5,555.5C 579.833,554.833 579.167,554.167 578.5,553.5C 576.733,551.208 575.733,548.542 575.5,545.5C 575.425,542.794 575.092,540.127 574.5,537.5 Z"/></g>
<g><path style="opacity:0.031" fill="#111111" d="M 578.5,553.5 C 579.167,554.167 579.833,554.833 580.5,555.5C 582.133,559.767 584.133,563.767 586.5,567.5C 587.11,568.391 587.443,569.391 587.5,570.5C 588.092,573.127 588.425,575.794 588.5,578.5C 584.401,570.549 581.068,562.216 578.5,553.5 Z"/></g>
<g><path style="opacity:0.139" fill="#4e4e4e" d="M 357.5,548.5 C 350.617,563.6 344.284,578.934 338.5,594.5C 337.883,594.389 337.383,594.056 337,593.5C 336.148,594.571 335.315,595.571 334.5,596.5C 337.702,587.089 341.202,577.755 345,568.5C 347.232,563.265 349.732,558.265 352.5,553.5C 353.892,551.727 355.059,549.727 356,547.5C 356.383,548.056 356.883,548.389 357.5,548.5 Z"/></g>
<g><path style="opacity:0.808" fill="#989898" d="M 580.5,552.5 C 583.296,557.105 585.296,562.105 586.5,567.5C 584.133,563.767 582.133,559.767 580.5,555.5C 580.5,554.5 580.5,553.5 580.5,552.5 Z"/></g>
<g><path style="opacity:0.518" fill="#8e8e8e" d="M 151.5,562.5 C 151.308,566.102 149.974,569.102 147.5,571.5C 147.443,570.391 147.11,569.391 146.5,568.5C 146.5,568.167 146.5,567.833 146.5,567.5C 147.117,567.611 147.617,567.944 148,568.5C 148.941,566.273 150.108,564.273 151.5,562.5 Z"/></g>
<g><path style="opacity:0.243" fill="#1a1a1a" d="M 146.5,568.5 C 147.11,569.391 147.443,570.391 147.5,571.5C 146.778,571.918 146.278,572.584 146,573.5C 145.617,572.944 145.117,572.611 144.5,572.5C 144.66,570.847 145.326,569.514 146.5,568.5 Z"/></g>
<g><path style="opacity:0.122" fill="#6b6b6b" d="M 147.5,571.5 C 147.598,573.553 146.931,575.22 145.5,576.5C 145.167,575.167 144.833,573.833 144.5,572.5C 145.117,572.611 145.617,572.944 146,573.5C 146.278,572.584 146.778,571.918 147.5,571.5 Z"/></g>
<g><path style="opacity:0.075" fill="#575757" d="M 587.5,570.5 C 589.685,574.213 591.352,578.213 592.5,582.5C 591.685,581.571 590.852,580.571 590,579.5C 589.536,580.094 589.369,580.761 589.5,581.5C 588.596,580.791 588.263,579.791 588.5,578.5C 588.425,575.794 588.092,573.127 587.5,570.5 Z"/></g>
<g><path style="opacity:0.175" fill="#2a2a2a" d="M 144.5,572.5 C 144.833,573.833 145.167,575.167 145.5,576.5C 145.34,578.153 144.674,579.486 143.5,580.5C 141.966,583.593 139.966,586.26 137.5,588.5C 139.322,582.864 141.655,577.531 144.5,572.5 Z"/></g>
<g><path style="opacity:0.046" fill="#131313" d="M 592.5,582.5 C 592.963,585.482 593.296,588.482 593.5,591.5C 591.597,588.47 590.263,585.137 589.5,581.5C 589.369,580.761 589.536,580.094 590,579.5C 590.852,580.571 591.685,581.571 592.5,582.5 Z"/></g>
<g><path style="opacity:0.169" fill="#777777" d="M 143.5,580.5 C 142.018,585.456 140.018,590.123 137.5,594.5C 137.5,592.5 137.5,590.5 137.5,588.5C 139.966,586.26 141.966,583.593 143.5,580.5 Z"/></g>
<g><path style="opacity:0.133" fill="#6a6a6a" d="M 592.5,582.5 C 594.734,586.522 596.401,590.856 597.5,595.5C 596.333,593.959 595,592.625 593.5,591.5C 593.296,588.482 592.963,585.482 592.5,582.5 Z"/></g>
<g><path style="opacity:0.026" fill="#0f0f0f" d="M 593.5,591.5 C 595,592.625 596.333,593.959 597.5,595.5C 598.167,598.833 598.833,602.167 599.5,605.5C 596.932,601.144 594.932,596.478 593.5,591.5 Z"/></g>
<g><path style="opacity:0.22" fill="#727272" d="M 597.5,595.5 C 600.678,601.196 603.344,607.196 605.5,613.5C 604.609,612.89 603.609,612.557 602.5,612.5C 603.092,609.369 602.092,607.036 599.5,605.5C 598.833,602.167 598.167,598.833 597.5,595.5 Z"/></g>
<g><path style="opacity:0.094" fill="#373737" d="M 338.5,594.5 C 332.405,610.343 326.072,626.01 319.5,641.5C 318.709,639.691 318.709,637.691 319.5,635.5C 322.195,628.786 324.862,622.119 327.5,615.5C 329.868,613.044 330.868,610.044 330.5,606.5C 331.282,602.937 332.616,599.603 334.5,596.5C 335.315,595.571 336.148,594.571 337,593.5C 337.383,594.056 337.883,594.389 338.5,594.5 Z"/></g>
<g><path style="opacity:0.035" fill="#0b0b0b" d="M 599.5,605.5 C 602.092,607.036 603.092,609.369 602.5,612.5C 600.935,610.491 599.935,608.157 599.5,605.5 Z"/></g>
<g><path style="opacity:0.176" fill="#313131" d="M 137.5,588.5 C 137.5,590.5 137.5,592.5 137.5,594.5C 135.871,599.735 133.871,604.735 131.5,609.5C 129.733,611.792 128.733,614.458 128.5,617.5C 128.072,620.785 127.072,623.785 125.5,626.5C 125.5,624.167 125.5,621.833 125.5,619.5C 128.341,608.631 132.341,598.298 137.5,588.5 Z"/></g>
<g><path style="opacity:0.322" fill="#858585" d="M 330.5,606.5 C 330.868,610.044 329.868,613.044 327.5,615.5C 327.69,612.145 328.69,609.145 330.5,606.5 Z"/></g>
<g><path style="opacity:0.486" fill="#8f8f8f" d="M 131.5,609.5 C 131.585,612.649 130.585,615.316 128.5,617.5C 128.733,614.458 129.733,611.792 131.5,609.5 Z"/></g>
<g><path style="opacity:0.027" fill="#0d0d0d" d="M 602.5,612.5 C 603.609,612.557 604.609,612.89 605.5,613.5C 605.5,613.833 605.5,614.167 605.5,614.5C 605.674,616.861 606.007,619.194 606.5,621.5C 604.796,618.744 603.463,615.744 602.5,612.5 Z"/></g>
<g><path style="opacity:0.173" fill="#606060" d="M 605.5,614.5 C 608.284,618.405 610.284,622.738 611.5,627.5C 609.833,625.5 608.167,623.5 606.5,621.5C 606.007,619.194 605.674,616.861 605.5,614.5 Z"/></g>
<g><path style="opacity:0.022" fill="#101010" d="M 606.5,621.5 C 608.167,623.5 609.833,625.5 611.5,627.5C 611.402,629.553 612.069,631.22 613.5,632.5C 614.11,633.391 614.443,634.391 614.5,635.5C 614.5,637.167 614.5,638.833 614.5,640.5C 611.039,634.57 608.373,628.236 606.5,621.5 Z"/></g>
<g><path style="opacity:0.69" fill="#b8b8b8" d="M 611.5,627.5 C 612.931,628.78 613.598,630.447 613.5,632.5C 612.069,631.22 611.402,629.553 611.5,627.5 Z"/></g>
<g><path style="opacity:0.969" fill="#8f8f8f" d="M 125.5,627.5 C 124.258,634.817 122.258,641.817 119.5,648.5C 120.314,641.069 122.314,634.069 125.5,627.5 Z"/></g>
<g><path style="opacity:0.176" fill="#606060" d="M 614.5,635.5 C 616.674,638.515 618.341,641.849 619.5,645.5C 617.621,644.103 615.954,642.437 614.5,640.5C 614.5,638.833 614.5,637.167 614.5,635.5 Z"/></g>
<g><path style="opacity:0.188" fill="#717171" d="M 319.5,635.5 C 318.709,637.691 318.709,639.691 319.5,641.5C 319.443,642.609 319.11,643.609 318.5,644.5C 317.5,643.167 316.5,643.167 315.5,644.5C 316.463,641.256 317.796,638.256 319.5,635.5 Z"/></g>
<g><path style="opacity:0.075" fill="#313131" d="M 318.5,644.5 C 314.432,652.971 309.599,660.971 304,668.5C 301.517,671.823 298.351,674.157 294.5,675.5C 295.203,673.127 296.536,671.127 298.5,669.5C 298.856,667.81 299.856,666.81 301.5,666.5C 303.587,665.415 304.92,663.749 305.5,661.5C 308.585,655.661 311.918,649.994 315.5,644.5C 316.5,643.167 317.5,643.167 318.5,644.5 Z"/></g>
<g><path style="opacity:0.045" fill="#252525" d="M 614.5,640.5 C 615.954,642.437 617.621,644.103 619.5,645.5C 621.592,648.088 622.925,651.088 623.5,654.5C 623.75,656.674 624.75,658.341 626.5,659.5C 630.677,667.192 634.344,675.192 637.5,683.5C 637.402,685.553 638.069,687.22 639.5,688.5C 642.403,693.977 645.07,699.643 647.5,705.5C 647.935,708.157 648.935,710.491 650.5,712.5C 651.11,713.391 651.443,714.391 651.5,715.5C 651.517,717.565 651.85,719.565 652.5,721.5C 652.167,721.5 651.833,721.5 651.5,721.5C 639.757,694.29 627.424,667.29 614.5,640.5 Z"/></g>
<g><path style="opacity:0.416" fill="#8b8b8b" d="M 623.5,654.5 C 625.25,655.659 626.25,657.326 626.5,659.5C 624.75,658.341 623.75,656.674 623.5,654.5 Z"/></g>
<g><path style="opacity:0.427" fill="#989898" d="M 305.5,661.5 C 304.92,663.749 303.587,665.415 301.5,666.5C 302.08,664.251 303.413,662.585 305.5,661.5 Z"/></g>
<g><path style="opacity:0.471" fill="#a6a6a6" d="M 117.5,672.5 C 120.733,673.609 124.066,674.442 127.5,675C 143.149,676.086 158.815,676.586 174.5,676.5C 167.687,677.491 160.687,677.825 153.5,677.5C 145.826,677.666 138.159,677.5 130.5,677C 125.591,676.754 121.257,675.254 117.5,672.5 Z"/></g>
<g><path style="opacity:0.086" fill="#262626" d="M 293.5,675.5 C 288.559,677.96 283.225,679.293 277.5,679.5C 282.273,675.973 287.607,674.64 293.5,675.5 Z"/></g>
<g><path style="opacity:0.012" fill="#101010" d="M 125.5,619.5 C 125.5,621.833 125.5,624.167 125.5,626.5C 125.5,626.833 125.5,627.167 125.5,627.5C 122.314,634.069 120.314,641.069 119.5,648.5C 118.306,654.271 116.973,659.938 115.5,665.5C 115.319,668.163 115.985,670.497 117.5,672.5C 121.257,675.254 125.591,676.754 130.5,677C 138.159,677.5 145.826,677.666 153.5,677.5C 165.322,678.495 177.322,678.828 189.5,678.5C 200.654,679.495 211.988,679.828 223.5,679.5C 228.167,680.167 232.833,680.833 237.5,681.5C 200.473,681.766 163.473,680.933 126.5,679C 118.725,678.555 114.059,674.555 112.5,667C 115.687,650.741 120.021,634.908 125.5,619.5 Z"/></g>
<g><path style="opacity:0.531" fill="#757575" d="M 174.5,676.5 C 179.453,677.329 184.453,677.663 189.5,677.5C 189.5,677.833 189.5,678.167 189.5,678.5C 177.322,678.828 165.322,678.495 153.5,677.5C 160.687,677.825 167.687,677.491 174.5,676.5 Z"/></g>
<g><path style="opacity:0.337" fill="#8c8c8c" d="M 298.5,669.5 C 296.536,671.127 295.203,673.127 294.5,675.5C 294.167,675.5 293.833,675.5 293.5,675.5C 287.607,674.64 282.273,675.973 277.5,679.5C 277.167,679.5 276.833,679.5 276.5,679.5C 259.008,679.117 241.342,679.117 223.5,679.5C 211.988,679.828 200.654,679.495 189.5,678.5C 189.5,678.167 189.5,677.833 189.5,677.5C 216.181,678.698 242.848,678.531 269.5,677C 279.764,676.518 289.431,674.018 298.5,669.5 Z"/></g>
<g><path style="opacity:0.114" fill="#282828" d="M 276.5,679.5 C 265.198,681.034 253.698,682.034 242,682.5C 240.408,682.395 238.908,682.061 237.5,681.5C 232.833,680.833 228.167,680.167 223.5,679.5C 241.342,679.117 259.008,679.117 276.5,679.5 Z"/></g>
<g><path style="opacity:0.651" fill="#b4b4b4" d="M 637.5,683.5 C 638.931,684.78 639.598,686.447 639.5,688.5C 638.069,687.22 637.402,685.553 637.5,683.5 Z"/></g>
<g><path style="opacity:0.867" fill="#959595" d="M 647.5,705.5 C 649.448,707.32 650.448,709.654 650.5,712.5C 648.935,710.491 647.935,708.157 647.5,705.5 Z"/></g>
<g><path style="opacity:0.243" fill="#7e7e7e" d="M 651.5,715.5 C 653.099,718.784 654.433,722.284 655.5,726C 655.164,727.03 654.497,727.53 653.5,727.5C 653.675,725.379 653.341,723.379 652.5,721.5C 651.85,719.565 651.517,717.565 651.5,715.5 Z"/></g>
<g><path style="opacity:0.451" fill="#7f7f7f" d="M 619.5,728.5 C 630.5,727.167 641.5,727.167 652.5,728.5C 646.764,729.221 641.43,729.554 636.5,729.5C 631.025,728.511 625.358,728.178 619.5,728.5 Z"/></g>
<g><path style="opacity:0.05" fill="#0e0e0e" d="M 651.5,721.5 C 651.833,721.5 652.167,721.5 652.5,721.5C 653.341,723.379 653.675,725.379 653.5,727.5C 653.5,728.167 653.167,728.5 652.5,728.5C 641.5,727.167 630.5,727.167 619.5,728.5C 612.877,729.38 606.211,729.713 599.5,729.5C 586.155,729.453 572.821,729.786 559.5,730.5C 527.159,730.329 494.826,730.662 462.5,731.5C 431.49,731.285 400.49,731.618 369.5,732.5C 334.169,733.062 298.836,733.396 263.5,733.5C 255.684,732.508 247.684,732.174 239.5,732.5C 216.847,731.615 194.18,731.282 171.5,731.5C 147.164,731.333 122.831,731.5 98.5,732C 95.2799,733.352 91.9466,734.186 88.5,734.5C 91.534,731.759 95.2007,730.259 99.5,730C 164.343,729.221 229.177,729.721 294,731.5C 413.189,730.46 532.356,728.46 651.5,725.5C 651.5,724.167 651.5,722.833 651.5,721.5 Z"/></g>
<g><path style="opacity:0.498" fill="#999999" d="M 599.5,729.5 C 599.5,729.833 599.5,730.167 599.5,730.5C 586.192,731.404 572.859,731.737 559.5,731.5C 559.5,731.167 559.5,730.833 559.5,730.5C 572.821,729.786 586.155,729.453 599.5,729.5 Z"/></g>
<g><path style="opacity:0.586" fill="#c4c4c4" d="M 619.5,728.5 C 625.358,728.178 631.025,728.511 636.5,729.5C 624.168,729.868 611.835,730.202 599.5,730.5C 599.5,730.167 599.5,729.833 599.5,729.5C 606.211,729.713 612.877,729.38 619.5,728.5 Z"/></g>
<g><path style="opacity:0.508" fill="#969696" d="M 559.5,730.5 C 559.5,730.833 559.5,731.167 559.5,731.5C 527.175,732.348 494.841,732.681 462.5,732.5C 462.5,732.167 462.5,731.833 462.5,731.5C 494.826,730.662 527.159,730.329 559.5,730.5 Z"/></g>
<g><path style="opacity:0.579" fill="#bababa" d="M 171.5,731.5 C 171.5,731.833 171.5,732.167 171.5,732.5C 149.497,732.333 127.497,732.5 105.5,733C 98.7668,732.747 92.7668,734.58 87.5,738.5C 88.2341,737.292 88.5674,735.959 88.5,734.5C 91.9466,734.186 95.2799,733.352 98.5,732C 122.831,731.5 147.164,731.333 171.5,731.5 Z"/></g>
<g><path style="opacity:0.402" fill="#969696" d="M 171.5,732.5 C 171.5,732.167 171.5,731.833 171.5,731.5C 194.18,731.282 216.847,731.615 239.5,732.5C 239.5,732.833 239.5,733.167 239.5,733.5C 216.651,733.754 193.984,733.42 171.5,732.5 Z"/></g>
<g><path style="opacity:0.678" fill="#8e8e8e" d="M 462.5,731.5 C 462.5,731.833 462.5,732.167 462.5,732.5C 431.671,733.498 400.671,733.831 369.5,733.5C 369.5,733.167 369.5,732.833 369.5,732.5C 400.49,731.618 431.49,731.285 462.5,731.5 Z"/></g>
<g><path style="opacity:0.316" fill="#606060" d="M 239.5,733.5 C 239.5,733.167 239.5,732.833 239.5,732.5C 247.684,732.174 255.684,732.508 263.5,733.5C 257.5,733.5 251.5,733.5 245.5,733.5C 243.612,734.275 241.612,734.275 239.5,733.5 Z"/></g>
<g><path style="opacity:0.392" fill="#949494" d="M 369.5,732.5 C 369.5,732.833 369.5,733.167 369.5,733.5C 328.069,734.83 286.736,734.83 245.5,733.5C 251.5,733.5 257.5,733.5 263.5,733.5C 298.836,733.396 334.169,733.062 369.5,732.5 Z"/></g>
<g><path style="opacity:0.139" fill="#303030" d="M 88.5,734.5 C 88.5674,735.959 88.2341,737.292 87.5,738.5C 81.3295,746.186 75.6628,754.186 70.5,762.5C 68.3366,766.117 65.6699,769.451 62.5,772.5C 67.8878,760.282 74.7212,748.949 83,738.5C 84.7742,737.035 86.6075,735.702 88.5,734.5 Z"/></g>
<g><path style="opacity:0.573" fill="#a7a7a7" d="M 876.5,796.5 C 879.254,800.695 880.921,805.362 881.5,810.5C 879.313,806.105 877.646,801.438 876.5,796.5 Z"/></g>
<g><path style="opacity:0.514" fill="#aeaeae" d="M 886.5,826.5 C 888.472,829.084 889.472,832.084 889.5,835.5C 887.928,832.785 886.928,829.785 886.5,826.5 Z"/></g>
<g><path style="opacity:0.067" fill="#484848" d="M 70.5,762.5 C 55.8808,794.413 41.2141,826.413 26.5,858.5C 24.1939,862.085 22.8606,866.085 22.5,870.5C 21.0361,876.225 19.3694,881.892 17.5,887.5C 15.7773,889.78 15.1107,892.447 15.5,895.5C 14.0133,901.924 16.3466,905.59 22.5,906.5C 22.5,906.833 22.5,907.167 22.5,907.5C 19.4299,907.632 16.4299,907.299 13.5,906.5C 12.353,902.354 12.1864,898.02 13,893.5C 15.6878,882.749 18.6878,872.083 22,861.5C 35.0013,831.505 48.5013,801.838 62.5,772.5C 65.6699,769.451 68.3366,766.117 70.5,762.5 Z"/></g>
<g><path style="opacity:0.412" fill="#a1a1a1" d="M 894.5,851.5 C 897.076,856.448 898.743,861.781 899.5,867.5C 897.059,862.506 895.393,857.172 894.5,851.5 Z"/></g>
<g><path style="opacity:0.086" fill="#4a4a4a" d="M 874.5,782.5 C 886.612,815.673 897.446,849.34 907,883.5C 907.816,892.079 907.649,900.579 906.5,909C 903.043,910.743 899.377,911.743 895.5,912C 887.801,912.78 880.135,913.613 872.5,914.5C 871.737,913.732 870.737,913.232 869.5,913C 861.841,912.5 854.174,912.334 846.5,912.5C 859.516,911.749 872.516,910.749 885.5,909.5C 885.5,908.833 885.833,908.5 886.5,908.5C 891.579,909.826 896.579,909.493 901.5,907.5C 902.795,906.512 904.128,905.512 905.5,904.5C 906.163,902.359 906.497,900.025 906.5,897.5C 906.637,893.553 905.97,889.886 904.5,886.5C 902.994,880.144 901.327,873.81 899.5,867.5C 898.743,861.781 897.076,856.448 894.5,851.5C 892.433,846.299 890.766,840.965 889.5,835.5C 889.472,832.084 888.472,829.084 886.5,826.5C 884.435,821.304 882.768,815.97 881.5,810.5C 880.921,805.362 879.254,800.695 876.5,796.5C 875.061,794.412 874.394,792.079 874.5,789.5C 874.244,787.063 873.577,784.729 872.5,782.5C 872.97,781.537 873.637,781.537 874.5,782.5 Z"/></g>
<g><path style="opacity:0.549" fill="#a4a4a4" d="M 26.5,858.5 C 25.7387,862.784 24.4053,866.784 22.5,870.5C 22.8606,866.085 24.1939,862.085 26.5,858.5 Z"/></g>
<g><path style="opacity:0.812" fill="#bebebe" d="M 17.5,887.5 C 17.1977,890.373 16.531,893.039 15.5,895.5C 15.1107,892.447 15.7773,889.78 17.5,887.5 Z"/></g>
<g><path style="opacity:0.586" fill="#acacac" d="M 904.5,886.5 C 905.97,889.886 906.637,893.553 906.5,897.5C 906.497,900.025 906.163,902.359 905.5,904.5C 905.299,898.491 904.966,892.491 904.5,886.5 Z"/></g>
<g><path style="opacity:0.092" fill="#111111" d="M 13.5,906.5 C 16.4299,907.299 19.4299,907.632 22.5,907.5C 22.5,908.5 22.5,909.5 22.5,910.5C 18.8976,910.308 15.8976,908.974 13.5,906.5 Z"/></g>
<g><path style="opacity:0.361" fill="#ababab" d="M 901.5,907.5 C 896.579,909.493 891.579,909.826 886.5,908.5C 891.518,908.387 896.518,908.053 901.5,907.5 Z"/></g>
<g><path style="opacity:0.604" fill="#a6a6a6" d="M 22.5,906.5 C 37.1192,908.119 51.7858,909.119 66.5,909.5C 62.3656,910.485 58.0323,910.818 53.5,910.5C 44.8275,909.966 36.1608,909.3 27.5,908.5C 25.6672,908.585 24.3339,909.252 23.5,910.5C 23.1667,910.5 22.8333,910.5 22.5,910.5C 22.5,909.5 22.5,908.5 22.5,907.5C 22.5,907.167 22.5,906.833 22.5,906.5 Z"/></g>
<g><path style="opacity:0.493" fill="#676767" d="M 66.5,909.5 C 67.4916,909.328 68.1583,909.662 68.5,910.5C 76.9286,911.192 85.9286,911.859 95.5,912.5C 81.2954,912.863 67.2954,912.196 53.5,910.5C 58.0323,910.818 62.3656,910.485 66.5,909.5 Z"/></g>
<g><path style="opacity:0.659" fill="#bdbdbd" d="M 68.5,910.5 C 86.503,910.7 104.503,911.033 122.5,911.5C 116.355,912.49 110.022,912.823 103.5,912.5C 100.833,912.5 98.1667,912.5 95.5,912.5C 85.9286,911.859 76.9286,911.192 68.5,910.5 Z"/></g>
<g><path style="opacity:0.017" fill="#1a1a1a" d="M 53.5,910.5 C 67.2954,912.196 81.2954,912.863 95.5,912.5C 98.1667,912.5 100.833,912.5 103.5,912.5C 110.313,913.491 117.313,913.825 124.5,913.5C 125.5,913.5 126.5,913.5 127.5,913.5C 129.844,913.94 131.844,914.94 133.5,916.5C 96.7251,916.071 60.0584,914.071 23.5,910.5C 24.3339,909.252 25.6672,908.585 27.5,908.5C 36.1608,909.3 44.8275,909.966 53.5,910.5 Z"/></g>
<g><path style="opacity:0.465" fill="#6b6b6b" d="M 122.5,911.5 C 123.167,911.833 123.833,912.167 124.5,912.5C 124.5,912.833 124.5,913.167 124.5,913.5C 117.313,913.825 110.313,913.491 103.5,912.5C 110.022,912.823 116.355,912.49 122.5,911.5 Z"/></g>
<g><path style="opacity:0.094" fill="#2f2f2f" d="M 840.5,912.5 C 842.5,912.5 844.5,912.5 846.5,912.5C 854.174,912.334 861.841,912.5 869.5,913C 870.737,913.232 871.737,913.732 872.5,914.5C 861.752,914.191 851.085,914.524 840.5,915.5C 840.5,914.5 840.5,913.5 840.5,912.5 Z"/></g>
<g><path style="opacity:0.746" fill="#ababab" d="M 124.5,913.5 C 124.5,913.167 124.5,912.833 124.5,912.5C 146.167,912.813 167.834,913.146 189.5,913.5C 189.5,914.167 189.167,914.5 188.5,914.5C 168.16,914.508 147.826,914.175 127.5,913.5C 126.5,913.5 125.5,913.5 124.5,913.5 Z"/></g>
<g><path style="opacity:0.916" fill="#a3a3a3" d="M 189.5,913.5 C 228.5,913.5 267.5,913.5 306.5,913.5C 306.5,913.833 306.5,914.167 306.5,914.5C 302.629,914.185 298.962,914.518 295.5,915.5C 259.839,915.31 224.172,915.31 188.5,915.5C 188.5,915.167 188.5,914.833 188.5,914.5C 189.167,914.5 189.5,914.167 189.5,913.5 Z"/></g>
<g><path style="opacity:0.102" fill="#434343" d="M 840.5,912.5 C 840.5,913.5 840.5,914.5 840.5,915.5C 820.165,915.771 799.832,916.104 779.5,916.5C 771.35,915.507 763.017,915.174 754.5,915.5C 783,914.276 811.667,913.276 840.5,912.5 Z"/></g>
<g><path style="opacity:0.133" fill="#3f3f3f" d="M 127.5,913.5 C 147.826,914.175 168.16,914.508 188.5,914.5C 188.5,914.833 188.5,915.167 188.5,915.5C 186.5,915.5 184.5,915.5 182.5,915.5C 174.128,915.321 166.128,915.655 158.5,916.5C 150.167,916.5 141.833,916.5 133.5,916.5C 131.844,914.94 129.844,913.94 127.5,913.5 Z"/></g>
<g><path style="opacity:0.787" fill="#3e3e3e" d="M 295.5,915.5 C 298.962,914.518 302.629,914.185 306.5,914.5C 311.935,915.123 317.268,915.79 322.5,916.5C 315.288,916.219 308.122,916.552 301,917.5C 299.403,916.115 297.57,915.449 295.5,915.5 Z"/></g>
<g><path style="opacity:0.768" fill="#6a6a6a" d="M 306.5,914.5 C 306.5,914.167 306.5,913.833 306.5,913.5C 326.811,914.44 347.144,914.773 367.5,914.5C 367.833,915.167 368.167,915.833 368.5,916.5C 353.174,916.278 337.841,916.278 322.5,916.5C 317.268,915.79 311.935,915.123 306.5,914.5 Z"/></g>
<g><path style="opacity:0.783" fill="#cfcfcf" d="M 367.5,914.5 C 376.833,914.5 386.167,914.5 395.5,914.5C 386.833,915.167 378.167,915.833 369.5,916.5C 369.167,916.5 368.833,916.5 368.5,916.5C 368.167,915.833 367.833,915.167 367.5,914.5 Z"/></g>
<g><path style="opacity:0.529" fill="#b1b1b1" d="M 885.5,909.5 C 872.516,910.749 859.516,911.749 846.5,912.5C 844.5,912.5 842.5,912.5 840.5,912.5C 811.667,913.276 783,914.276 754.5,915.5C 753.5,915.5 752.5,915.5 751.5,915.5C 737.323,915.171 723.323,915.504 709.5,916.5C 704.167,916.5 698.833,916.5 693.5,916.5C 600.5,916.5 507.5,916.5 414.5,916.5C 414.5,916.167 414.5,915.833 414.5,915.5C 510.834,915.667 607.167,915.5 703.5,915C 764.189,913.813 824.856,911.98 885.5,909.5 Z"/></g>
<g><path style="opacity:0.007" fill="#040404" d="M 182.5,915.5 C 183.172,916.267 184.005,916.934 185,917.5C 193.229,917.38 202.062,917.047 211.5,916.5C 212.308,916.808 212.975,917.308 213.5,918C 194.983,918.604 176.649,918.104 158.5,916.5C 166.128,915.655 174.128,915.321 182.5,915.5 Z"/></g>
<g><path style="opacity:0.388" fill="#727272" d="M 395.5,914.5 C 401.797,915.32 408.131,915.653 414.5,915.5C 414.5,915.833 414.5,916.167 414.5,916.5C 412.833,916.5 411.167,916.5 409.5,916.5C 402.833,916.5 396.167,916.5 389.5,916.5C 382.653,916.639 375.986,916.639 369.5,916.5C 378.167,915.833 386.833,915.167 395.5,914.5 Z"/></g>
<g><path style="opacity:0.265" fill="#3c3c3c" d="M 709.5,916.5 C 723.323,915.504 737.323,915.171 751.5,915.5C 749.833,916.167 748.167,916.833 746.5,917.5C 745.833,917.5 745.167,917.5 744.5,917.5C 732.914,916.522 721.247,916.189 709.5,916.5 Z"/></g>
<g><path style="opacity:0.076" fill="#1e1e1e" d="M 751.5,915.5 C 752.5,915.5 753.5,915.5 754.5,915.5C 763.017,915.174 771.35,915.507 779.5,916.5C 768.581,917.477 757.581,917.81 746.5,917.5C 748.167,916.833 749.833,916.167 751.5,915.5 Z"/></g>
<g><path style="opacity:0.358" fill="#4a4a4a" d="M 409.5,916.5 C 411.167,916.5 412.833,916.5 414.5,916.5C 507.5,916.5 600.5,916.5 693.5,916.5C 602.5,917.167 511.5,917.833 420.5,918.5C 420.167,918.5 419.833,918.5 419.5,918.5C 416.167,917.833 412.833,917.167 409.5,916.5 Z"/></g>
<g><path style="opacity:0.005" fill="#080808" d="M 217.5,917.5 C 221.907,919.175 226.241,920.175 230.5,920.5C 225.77,921.328 221.104,920.828 216.5,919C 217.056,918.617 217.389,918.117 217.5,917.5 Z"/></g>
<g><path style="opacity:0.004" fill="#a2a2a2" d="M 224.5,918.5 C 224.897,917.475 225.563,917.308 226.5,918C 225.906,918.464 225.239,918.631 224.5,918.5 Z"/></g>
<g><path style="opacity:0.004" fill="#151515" d="M 293.5,918.5 C 293.897,917.475 294.563,917.308 295.5,918C 294.906,918.464 294.239,918.631 293.5,918.5 Z"/></g>
<g><path style="opacity:0.004" fill="#000000" d="M 296.5,917.5 C 297.833,918.167 297.833,918.167 296.5,917.5 Z"/></g>
<g><path style="opacity:0.004" fill="#000000" d="M 312.5,917.5 C 313.833,918.167 313.833,918.167 312.5,917.5 Z"/></g>
<g><path style="opacity:0.004" fill="#000000" d="M 329.5,917.5 C 330.525,917.897 330.692,918.563 330,919.5C 329.536,918.906 329.369,918.239 329.5,917.5 Z"/></g>
<g><path style="opacity:0.004" fill="#fefffe" d="M 355.5,917.5 C 356.833,918.167 356.833,918.167 355.5,917.5 Z"/></g>
<g><path style="opacity:0.004" fill="#000000" d="M 360.5,917.5 C 361.833,918.167 361.833,918.167 360.5,917.5 Z"/></g>
<g><path style="opacity:0.012" fill="#0a0a0a" d="M 389.5,916.5 C 396.167,916.5 402.833,916.5 409.5,916.5C 412.833,917.167 416.167,917.833 419.5,918.5C 409.828,918.666 400.161,918.5 390.5,918C 389.944,917.617 389.611,917.117 389.5,916.5 Z"/></g>
<g><path style="opacity:0.048" fill="#010101" d="M 693.5,916.5 C 698.833,916.5 704.167,916.5 709.5,916.5C 721.247,916.189 732.914,916.522 744.5,917.5C 678.673,918.972 612.673,919.639 546.5,919.5C 504.43,919.497 462.43,919.164 420.5,918.5C 511.5,917.833 602.5,917.167 693.5,916.5 Z"/></g>
<g><path style="opacity:0.02" fill="#252525" d="M 231.5,919.5 C 235.311,918.355 239.311,918.188 243.5,919C 239.514,919.499 235.514,919.666 231.5,919.5 Z"/></g>
<g><path style="opacity:0.059" fill="#111111" d="M 253.5,919.5 C 253.897,918.475 254.563,918.308 255.5,919C 254.906,919.464 254.239,919.631 253.5,919.5 Z"/></g>
<g><path style="opacity:0.004" fill="#000000" d="M 365.5,919.5 C 365.897,918.475 366.563,918.308 367.5,919C 366.906,919.464 366.239,919.631 365.5,919.5 Z"/></g>
<g><path style="opacity:0.004" fill="#000000" d="M 369.5,919.5 C 369.897,918.475 370.563,918.308 371.5,919C 370.906,919.464 370.239,919.631 369.5,919.5 Z"/></g>
<g><path style="opacity:0.004" fill="#000000" d="M 375.5,918.5 C 376.833,919.167 376.833,919.167 375.5,918.5 Z"/></g>
<g><path style="opacity:0.004" fill="#000000" d="M 377.5,919.5 C 378.601,918.402 379.934,918.235 381.5,919C 380.207,919.49 378.873,919.657 377.5,919.5 Z"/></g>
<g><path style="opacity:0.004" fill="#000000" d="M 382.5,919.5 C 382.897,918.475 383.563,918.308 384.5,919C 383.906,919.464 383.239,919.631 382.5,919.5 Z"/></g>
<g><path style="opacity:0.004" fill="#000000" d="M 259.5,920.5 C 259.897,919.475 260.563,919.308 261.5,920C 260.906,920.464 260.239,920.631 259.5,920.5 Z"/></g>
<g><path style="opacity:0.004" fill="#fefffe" d="M 270.5,919.5 C 271.833,920.167 271.833,920.167 270.5,919.5 Z"/></g>
<g><path style="opacity:0.004" fill="#000000" d="M 290.5,919.5 C 291.833,920.167 291.833,920.167 290.5,919.5 Z"/></g>
<g><path style="opacity:0.004" fill="#000000" d="M 357.5,919.5 C 358.833,920.167 358.833,920.167 357.5,919.5 Z"/></g>
<g><path style="opacity:0.004" fill="#000000" d="M 286.5,920.5 C 287.833,921.167 287.833,921.167 286.5,920.5 Z"/></g>
<g><path style="opacity:0.024" fill="#595959" d="M 303.5,921.5 C 304.251,920.427 305.251,920.26 306.5,921C 305.552,921.483 304.552,921.649 303.5,921.5 Z"/></g>
<g><path style="opacity:0.016" fill="#172a13" d="M 327.5,919.5 C 328.289,919.783 328.956,920.283 329.5,921C 328.167,921.667 326.833,921.667 325.5,921C 326.416,920.722 327.082,920.222 327.5,919.5 Z"/></g>
<g><path style="opacity:0.005" fill="#000000" d="M 334.5,920.5 C 336.173,920.236 337.84,920.736 339.5,922C 336.5,922.667 333.5,922.667 330.5,922C 332.058,921.79 333.391,921.29 334.5,920.5 Z"/></g>
<g><path style="opacity:0.004" fill="#000000" d="M 344.5,920.5 C 347.766,921.075 351.433,921.241 355.5,921C 352.845,921.564 350.179,922.064 347.5,922.5C 345.97,922.36 344.97,921.693 344.5,920.5 Z"/></g>
<g><path style="opacity:0.004" fill="#000000" d="M 250.5,922.5 C 250.897,921.475 251.563,921.308 252.5,922C 251.906,922.464 251.239,922.631 250.5,922.5 Z"/></g>
<g><path style="opacity:0.031" fill="#0e0e0e" d="M 275.5,920.5 C 277.983,920.73 278.483,921.397 277,922.5C 275.97,922.164 275.47,921.497 275.5,920.5 Z"/></g>
</svg>
