<?xml version="1.0" encoding="UTF-8"?>
<!DOCTYPE svg PUBLIC "-//W3C//DTD SVG 1.1//EN" "http://www.w3.org/Graphics/SVG/1.1/DTD/svg11.dtd">
<svg xmlns="http://www.w3.org/2000/svg" version="1.1" width="1500px" height="1561px" style="shape-rendering:geometricPrecision; text-rendering:geometricPrecision; image-rendering:optimizeQuality; fill-rule:evenodd; clip-rule:evenodd" xmlns:xlink="http://www.w3.org/1999/xlink">
<g><path style="opacity:0.992" fill="#000000" d="M 391.5,1487.5 C 391.167,1486.17 390.833,1486.17 390.5,1487.5C 375.224,1486.47 358.391,1486.47 340,1487.5C 330,1486.83 320,1486.17 310,1485.5C 281.609,1485.52 252.943,1485.52 224,1485.5C 175.693,1484.33 126.693,1481.99 77,1478.5C 76.6667,1478.83 76.3333,1479.17 76,1479.5C 65.2874,1477.78 54.4541,1476.61 43.5,1476C 39.8121,1475.81 36.3121,1474.98 33,1473.5C 30.4376,1473.74 28.1043,1472.74 26,1470.5C 24.4961,1466.96 24.1628,1463.29 25,1459.5C 31.0295,1432.36 39.3628,1406.03 50,1380.5C 68.6549,1338.85 87.4883,1297.35 106.5,1256C 115.111,1238.91 125.111,1222.74 136.5,1207.5C 142.853,1200.33 150.52,1195.16 159.5,1192C 357.736,1191.83 555.903,1191.33 754,1190.5C 756.447,1190.96 758.947,1191.29 761.5,1191.5C 817.461,1190.56 873.461,1189.73 929.5,1189C 946.681,1188.26 964.848,1187.43 984,1186.5C 1011.6,1186.61 1038.77,1185.27 1065.5,1182.5C 1062.71,1171.96 1059.21,1161.63 1055,1151.5C 1037.79,1112.74 1019.79,1074.41 1001,1036.5C 992.547,1016.72 984.38,997.22 976.5,978C 942.708,894.61 908.541,811.443 874,728.5C 842.66,660.814 812.66,592.48 784,523.5C 776.148,502.949 764.648,484.783 749.5,469C 747.029,468.294 744.695,468.627 742.5,470C 735.538,478.748 729.705,488.248 725,498.5C 716.108,530.615 708.108,562.949 701,595.5C 696.26,613.793 690.594,631.793 684,649.5C 636.794,753.771 591.127,858.771 547,964.5C 538.886,984.967 531.219,1005.63 524,1026.5C 515.974,1046.23 505.641,1064.56 493,1081.5C 485.821,1089.67 476.987,1095.17 466.5,1098C 459.281,1099.46 452.114,1100.96 445,1102.5C 443.938,1101.9 442.772,1101.57 441.5,1101.5C 428.329,1103 415.162,1104 402,1104.5C 374.615,1104.39 345.615,1103.73 315,1102.5C 311.864,1102.45 308.864,1102.79 306,1103.5C 302.869,1102.79 299.702,1102.13 296.5,1101.5C 288.818,1101.19 280.651,1101.53 272,1102.5C 249.3,1101.27 226.633,1099.6 204,1097.5C 203.667,1097.83 203.333,1098.17 203,1098.5C 199.57,1097 196.07,1095.5 192.5,1094C 188.741,1090.26 187.574,1085.76 189,1080.5C 195.513,1046.21 205.513,1012.21 219,978.5C 248.845,909.815 277.845,840.815 306,771.5C 363.126,642.242 417.793,511.909 470,380.5C 491.924,331.329 513.258,281.996 534,232.5C 554.06,188.713 574.393,145.046 595,101.5C 602.709,85.0819 611.709,69.4152 622,54.5C 626.199,49.9657 630.699,45.799 635.5,42C 652.856,35.7428 670.523,32.0761 688.5,31C 716.5,30.3333 744.5,30.3333 772.5,31C 800.851,31.585 828.518,35.2517 855.5,42C 882.096,51.5942 902.262,68.7609 916,93.5C 939.563,137.624 959.563,183.29 976,230.5C 1012.64,317.414 1050.64,403.748 1090,489.5C 1113.52,548.093 1138.19,606.093 1164,663.5C 1181.11,709.513 1199.78,754.846 1220,799.5C 1238.19,843.742 1256.19,888.075 1274,932.5C 1315.02,1027.86 1356.02,1123.2 1397,1218.5C 1425.34,1288.85 1449.67,1360.52 1470,1433.5C 1472.29,1445.1 1473.62,1456.77 1474,1468.5C 1473.21,1471.58 1471.38,1473.75 1468.5,1475C 1460.55,1476.6 1452.55,1477.93 1444.5,1479C 1424.18,1480.32 1403.85,1481.32 1383.5,1482C 1381.24,1482.24 1379.07,1482.74 1377,1483.5C 1374.21,1482.8 1371.55,1482.47 1369,1482.5C 1331.66,1484.07 1294.33,1485.74 1257,1487.5C 1251.33,1487.16 1245.33,1486.83 1239,1486.5C 1233.87,1487.19 1228.7,1487.86 1223.5,1488.5C 1219.86,1487.47 1215.7,1487.13 1211,1487.5C 1170,1488.17 1129,1488.83 1088,1489.5C 962.565,1489.32 843.565,1489.32 731,1489.5C 631.31,1488.36 532.477,1487.86 434.5,1488C 434,1488.5 433.5,1489 433,1489.5C 430.725,1486.86 428.391,1486.86 426,1489.5C 423.705,1487.38 421.205,1487.04 418.5,1488.5C 416.618,1487.91 414.785,1487.24 413,1486.5C 407.786,1487.61 402.786,1487.61 398,1486.5C 396.686,1487.31 395.519,1488.31 394.5,1489.5C 393.749,1488.62 393.249,1487.62 393,1486.5C 392.617,1487.06 392.117,1487.39 391.5,1487.5 Z"/></g>
<g><path style="opacity:0.086" fill="#000000" d="M 390.5,1487.5 C 390.833,1487.5 391.167,1487.5 391.5,1487.5C 391.5,1487.83 391.5,1488.17 391.5,1488.5C 391.167,1488.17 390.833,1487.83 390.5,1487.5 Z"/></g>
<g><path style="opacity:0.086" fill="#000000" d="M 371.5,1488.5 C 372.833,1489.17 372.833,1489.17 371.5,1488.5 Z"/></g>
<g><path style="opacity:0.086" fill="#000000" d="M 391.5,1488.5 C 392.833,1489.17 392.833,1489.17 391.5,1488.5 Z"/></g>
<g><path style="opacity:0.086" fill="#000000" d="M 565.5,1489.5 C 566.833,1490.17 566.833,1490.17 565.5,1489.5 Z"/></g>
<g><path style="opacity:0.086" fill="#000000" d="M 426.5,1493.5 C 427.773,1494.08 427.773,1494.74 426.5,1495.5C 425.537,1495.03 425.537,1494.36 426.5,1493.5 Z"/></g>
<g><path style="opacity:0.086" fill="#000000" d="M 430.5,1493.5 C 431.833,1494.17 431.833,1494.17 430.5,1493.5 Z"/></g>
<g><path style="opacity:0.086" fill="#000000" d="M 421.5,1495.5 C 421.897,1494.47 422.563,1494.31 423.5,1495C 422.906,1495.46 422.239,1495.63 421.5,1495.5 Z"/></g>
<g><path style="opacity:0.086" fill="#000000" d="M 430.5,1494.5 C 429.833,1495.17 429.833,1495.17 430.5,1494.5 Z"/></g>
</svg>
